<svg width="32" height="32" viewBox="0 0 32 32" fill="none" xmlns="http://www.w3.org/2000/svg">
<path d="M28 16C28 22.6274 22.6274 28 16 28C9.37258 28 4 22.6274 4 16C4 9.37258 9.37258 4 16 4C22.6274 4 28 9.37258 28 16Z" fill="white"/>
<path fill-rule="evenodd" clip-rule="evenodd" d="M16 29C23.1797 29 29 23.1797 29 16C29 8.8203 23.1797 3 16 3C8.8203 3 3 8.8203 3 16C3 23.1797 8.8203 29 16 29ZM16 28C22.6274 28 28 22.6274 28 16C28 9.37258 22.6274 4 16 4C9.37258 4 4 9.37258 4 16C4 22.6274 9.37258 28 16 28Z" fill="#018000"/>
<path d="M9.5 15.125L14.0625 19.6875L21.9375 11.8125" stroke="#018000"/>
</svg>
