<?xml version="1.0" encoding="UTF-8" standalone="no"?>
<!-- Created with Inkscape (http://www.inkscape.org/) -->

<svg
   xmlns:dc="http://purl.org/dc/elements/1.1/"
   xmlns:cc="http://creativecommons.org/ns#"
   xmlns:rdf="http://www.w3.org/1999/02/22-rdf-syntax-ns#"
   xmlns:svg="http://www.w3.org/2000/svg"
   xmlns="http://www.w3.org/2000/svg"
   xmlns:xlink="http://www.w3.org/1999/xlink"
   xmlns:sodipodi="http://sodipodi.sourceforge.net/DTD/sodipodi-0.dtd"
   xmlns:inkscape="http://www.inkscape.org/namespaces/inkscape"
   width="121"
   height="56"
   viewBox="0 0 121 56"
   id="svg2"
   version="1.1"
   inkscape:version="0.92.2 5c3e80d, 2017-08-06"
   sodipodi:docname="background.svg">
  <sodipodi:namedview
     id="base"
     pagecolor="#b0dba0"
     bordercolor="#cc0000"
     borderopacity="1"
     inkscape:pageopacity="0"
     inkscape:pageshadow="2"
     inkscape:zoom="11.487603"
     inkscape:cx="87.589432"
     inkscape:cy="40.540884"
     inkscape:document-units="px"
     inkscape:current-layer="layer1"
     showgrid="true"
     inkscape:showpageshadow="false"
     borderlayer="true"
     units="px"
     inkscape:window-width="1920"
     inkscape:window-height="1017"
     inkscape:window-x="0"
     inkscape:window-y="0"
     inkscape:window-maximized="1"
     showguides="true"
     fit-margin-top="0"
     fit-margin-left="0"
     fit-margin-right="0"
     fit-margin-bottom="0"
     inkscape:guide-bbox="true">
    <inkscape:grid
       originy="-91.999978"
       originx="0"
       empspacing="2"
       id="grid3336"
       type="xygrid" />
    <sodipodi:guide
       position="118,32.000022"
       orientation="1,0"
       id="guide910"
       inkscape:locked="false" />
    <sodipodi:guide
       position="102,32.000022"
       orientation="1,0"
       id="guide912"
       inkscape:locked="false" />
    <sodipodi:guide
       position="105,20.000022"
       orientation="0,1"
       id="guide914"
       inkscape:locked="false" />
    <sodipodi:guide
       position="122,36.000022"
       orientation="0,1"
       id="guide916"
       inkscape:locked="false" />
  </sodipodi:namedview>
  <defs
     id="defs4">
    <linearGradient
       id="linearGradient944"
       inkscape:collect="always">
      <stop
         id="stop932"
         offset="0"
         style="stop-color:#000000;stop-opacity:1;" />
      <stop
         style="stop-color:#000000;stop-opacity:0.74900401"
         offset="0.43750003"
         id="stop934" />
      <stop
         id="stop936"
         offset="0.625"
         style="stop-color:#000000;stop-opacity:0.37848607" />
      <stop
         style="stop-color:#000000;stop-opacity:0.11952192"
         offset="0.78125"
         id="stop938" />
      <stop
         id="stop940"
         offset="0.890625"
         style="stop-color:#000000;stop-opacity:0" />
      <stop
         id="stop942"
         offset="1"
         style="stop-color:#000000;stop-opacity:0;" />
    </linearGradient>
    <style
       id="current-color-scheme"
       type="text/css">
      .ColorScheme-Text {
        color:#31363b;
        stop-color:#31363b;
      }
      .ColorScheme-Background {
        color:#eff0f1;
        stop-color:#eff0f1;
      }
      .ColorScheme-Highlight {
        color:#3daee9;
        stop-color:#3daee9;
      }
      .ColorScheme-ViewText {
        color:#31363b;
        stop-color:#31363b;
      }
      .ColorScheme-ViewBackground {
        color:#fcfcfc;
        stop-color:#fcfcfc;
      }
      .ColorScheme-ViewHover {
        color:#93cee9;
        stop-color:#93cee9;
      }
      .ColorScheme-ViewFocus{
        color:#3daee9;
        stop-color:#3daee9;
      }
      .ColorScheme-ButtonText {
        color:#31363b;
        stop-color:#31363b;
      }
      .ColorScheme-ButtonBackground {
        color:#eff0f1;
        stop-color:#eff0f1;
      }
      .ColorScheme-ButtonHover {
        color:#93cee9;
        stop-color:#93cee9;
      }
      .ColorScheme-ButtonFocus{
        color:#3daee9;
        stop-color:#3daee9;
      }
      </style>
    <linearGradient
       y2="-34.999985"
       x2="-904.36218"
       y1="-34.999985"
       x1="-915.02887"
       gradientUnits="userSpaceOnUse"
       id="linearGradient1183"
       xlink:href="#linearGradient944"
       inkscape:collect="always"
       gradientTransform="matrix(3,0,0,1,1820.7244,0)" />
    <linearGradient
       y2="-34.999985"
       x2="972.36218"
       y1="-34.999985"
       x1="940.36218"
       gradientUnits="userSpaceOnUse"
       id="linearGradient1197"
       xlink:href="#linearGradient944"
       inkscape:collect="always" />
    <linearGradient
       y2="932.36218"
       x2="-7.0000024"
       y1="932.36218"
       x1="-17.666668"
       gradientUnits="userSpaceOnUse"
       id="linearGradient1211"
       xlink:href="#linearGradient944"
       inkscape:collect="always"
       gradientTransform="matrix(3.0000002,0,0,1,26.000023,0)" />
    <linearGradient
       y2="932.36218"
       x2="74.999985"
       y1="932.36218"
       x1="42.999985"
       gradientUnits="userSpaceOnUse"
       id="linearGradient1213"
       xlink:href="#linearGradient944"
       inkscape:collect="always" />
    <radialGradient
       inkscape:collect="always"
       xlink:href="#linearGradient944"
       id="radialGradient1060"
       gradientUnits="userSpaceOnUse"
       gradientTransform="matrix(-1.33335e-7,-2.6666735,2.6666685,-1.333348e-7,58.868656,1049.2321)"
       cx="46.826077"
       cy="16.174246"
       fx="46.826077"
       fy="16.174246"
       r="11.999992" />
    <radialGradient
       inkscape:collect="always"
       xlink:href="#linearGradient944"
       id="radialGradient915"
       gradientUnits="userSpaceOnUse"
       gradientTransform="matrix(2.6666685,6.441909e-8,-6.4419093e-8,2.6666683,-6.8696233,881.23178)"
       cx="46.826077"
       cy="16.17388"
       fx="46.826077"
       fy="16.17388"
       r="11.999992" />
    <radialGradient
       inkscape:collect="always"
       xlink:href="#linearGradient944"
       id="radialGradient919"
       gradientUnits="userSpaceOnUse"
       gradientTransform="matrix(-8.9334288e-8,2.6666679,-2.6666686,-8.9334299e-8,161.13136,815.49256)"
       cx="46.826077"
       cy="16.174248"
       fx="46.826077"
       fy="16.174248"
       r="11.999992" />
    <radialGradient
       inkscape:collect="always"
       xlink:href="#linearGradient944"
       id="radialGradient923"
       gradientUnits="userSpaceOnUse"
       gradientTransform="matrix(-2.6666687,-1.4084066e-7,1.4084065e-7,-2.6666682,226.86964,983.49352)"
       cx="46.826077"
       cy="16.17425"
       fx="46.826077"
       fy="16.17425"
       r="11.999992" />
  </defs>
  <metadata
     id="metadata7">
    <rdf:RDF>
      <cc:Work
         rdf:about="">
        <dc:format>image/svg+xml</dc:format>
        <dc:type
           rdf:resource="http://purl.org/dc/dcmitype/StillImage" />
        <dc:title />
      </cc:Work>
    </rdf:RDF>
  </metadata>
  <g
     transform="translate(0,-904.36218)"
     id="layer1"
     inkscape:groupmode="layer"
     inkscape:label="Layer 1">
    <g
       transform="matrix(0,1,1,0,-897.36221,897.36222)"
       id="left">
      <rect
         class="ColorScheme-Background"
         transform="matrix(0,-1,-1,0,0,0)"
         style="opacity:0.8;fill:currentColor;fill-opacity:1;stroke:none"
         id="rect1025"
         width="6"
         height="32"
         x="-916.36218"
         y="-50.999985" />
      <rect
         y="-50.999985"
         x="-911.3623"
         height="32"
         width="1"
         id="rect1027"
         style="fill:#ffffff;fill-opacity:0.3"
         transform="matrix(0,-1,-1,0,0,0)" />
    </g>
    <g
       id="right"
       transform="rotate(90,34.999985,932.3622)">
      <rect
         y="-50.999985"
         x="-916.36218"
         height="32"
         width="6"
         id="rect1031"
         style="opacity:0.8;fill:currentColor;fill-opacity:1;stroke:none"
         transform="matrix(0,-1,-1,0,0,0)"
         class="ColorScheme-Background" />
      <rect
         transform="matrix(0,-1,-1,0,0,0)"
         style="fill:#ffffff;fill-opacity:0.3"
         id="rect1033"
         width="1"
         height="32"
         x="-911.3623"
         y="-50.999985" />
    </g>
    <g
       id="bottom"
       transform="matrix(1,0,0,-1,0,1864.7244)">
      <rect
         y="-50.999985"
         x="-916.36218"
         height="32"
         width="6"
         id="rect995"
         style="opacity:0.8;fill:currentColor;fill-opacity:1;stroke:none"
         transform="matrix(0,-1,-1,0,0,0)"
         class="ColorScheme-Background" />
      <rect
         transform="matrix(0,-1,-1,0,0,0)"
         style="fill:#ffffff;fill-opacity:0.3"
         id="rect997"
         width="1"
         height="32"
         x="-911.3623"
         y="-50.999985" />
    </g>
    <g
       transform="translate(75.000015)"
       id="shadow-right">
      <rect
         y="924.36218"
         x="42.999985"
         height="15.999975"
         width="14"
         id="rect1171"
         style="color:#eff0f1;opacity:0;fill:currentColor;fill-opacity:1;stroke:none"
         class="ColorScheme-Background" />
      <rect
         y="924.36218"
         x="56.999985"
         height="15.999975"
         width="18"
         id="rect1173"
         style="opacity:0.45;fill:url(#linearGradient1213);fill-opacity:1.0;fill-rule:evenodd;stroke:none" />
    </g>
    <g
       transform="translate(75.000015)"
       id="shadow-bottom">
      <rect
         transform="rotate(90)"
         style="color:#eff0f1;opacity:0;fill:currentColor;fill-opacity:1;stroke:none"
         id="rect1139"
         width="14.000025"
         height="15.999966"
         x="940.36218"
         y="-42.999985"
         class="ColorScheme-Background" />
      <rect
         transform="rotate(90)"
         style="opacity:0.45;fill:url(#linearGradient1197);fill-opacity:1.0;stroke:none"
         id="rect1141"
         width="17.999975"
         height="16"
         x="954.36218"
         y="-42.999985" />
    </g>
    <g
       transform="translate(75.000015)"
       id="shadow-left">
      <rect
         transform="scale(-1,1)"
         style="color:#eff0f1;opacity:0;fill:currentColor;fill-opacity:1;stroke:none"
         id="rect1165"
         width="14"
         height="15.999975"
         x="-26.999985"
         y="924.36218"
         class="ColorScheme-Background" />
      <rect
         transform="scale(-1,1)"
         style="opacity:0.45;fill:url(#linearGradient1211);fill-opacity:1.0;stroke:none;stroke-width:1"
         id="rect1167"
         width="18"
         height="15.999975"
         x="-12.999985"
         y="924.36218" />
    </g>
    <g
       transform="translate(75.000015)"
       id="shadow-top">
      <rect
         y="-42.999985"
         x="-924.36218"
         height="16"
         width="14.000025"
         id="rect1113"
         style="color:#eff0f1;opacity:0;fill:currentColor;fill-opacity:1;stroke:none"
         transform="matrix(0,-1,-1,0,0,0)"
         class="ColorScheme-Background" />
      <rect
         y="-42.999985"
         x="-910.36218"
         height="16"
         width="18.000025"
         id="rect1115"
         style="opacity:0.45;fill:url(#linearGradient1183);fill-opacity:1.0;stroke:none;stroke-width:1"
         transform="matrix(0,-1,-1,0,0,0)" />
    </g>
    <rect
       y="904.36218"
       x="0"
       height="5"
       width="5"
       id="hint-tile-center"
       style="opacity:1;fill:#ff6600;fill-opacity:1;stroke:none" />
    <g
       id="top">
      <rect
         class="ColorScheme-Background"
         transform="matrix(0,-1,-1,0,0,0)"
         style="opacity:0.8;fill:currentColor;fill-opacity:1;stroke:none;"
         id="rect4152"
         width="6"
         height="32"
         x="-916.36218"
         y="-50.999985" />
      <rect
         y="-50.999985"
         x="-911.3623"
         height="32"
         width="1"
         id="rect987"
         style="fill:#ffffff;fill-opacity:0.3"
         transform="matrix(0,-1,-1,0,0,0)" />
    </g>
    <g
       id="center">
      <rect
         style="opacity:1;fill:none;fill-opacity:1;stroke:none"
         id="rect4401"
         width="32"
         height="32"
         x="19.000004"
         y="916.36218" />
      <rect
         class="ColorScheme-Background"
         y="916.36218"
         x="19.000004"
         height="32"
         width="32"
         id="rect4138"
         style="opacity:0.8;fill:currentColor;fill-opacity:1;stroke:none" />
    </g>
    <rect
       y="910.36218"
       x="33"
       height="6.0000248"
       width="4"
       id="hint-top-margin"
       style="fill:#ff00ff;fill-opacity:1;stroke:none;stroke-width:1" />
    <rect
       style="fill:#ff00ff;fill-opacity:1;stroke:none;stroke-width:1"
       id="hint-bottom-margin"
       width="4"
       height="5.9999752"
       x="33"
       y="948.36218" />
    <rect
       transform="rotate(90)"
       style="fill:#ff00ff;fill-opacity:1;stroke:none;stroke-width:1"
       id="hint-right-margin"
       width="4"
       height="6.0000143"
       x="930.36218"
       y="-57" />
    <rect
       transform="rotate(90)"
       y="-19.000004"
       x="930.36218"
       height="6.0000038"
       width="4"
       id="hint-left-margin"
       style="fill:#ff00ff;fill-opacity:1;stroke:none;stroke-width:1" />
    <rect
       style="fill:#ff00ff;fill-opacity:1;stroke:none;stroke-width:1"
       id="shadow-hint-top-margin"
       width="4"
       height="18"
       x="108"
       y="892.36218" />
    <rect
       y="954.36224"
       x="108"
       height="18.00005"
       width="4"
       id="shadow-hint-bottom-margin"
       style="fill:#ff00ff;fill-opacity:1;stroke:none;stroke-width:1" />
    <rect
       y="-150"
       x="930.36218"
       height="18.000008"
       width="4"
       id="shadow-hint-right-margin"
       style="fill:#ff00ff;fill-opacity:1;stroke:none;stroke-width:0.99999994"
       transform="rotate(90)" />
    <rect
       style="fill:#ff00ff;fill-opacity:1;stroke:none;stroke-width:1"
       id="shadow-hint-left-margin"
       width="4"
       height="17.999996"
       x="930.36218"
       y="-88"
       transform="rotate(90)" />
    <g
       transform="translate(75.000015)"
       id="shadow-center">
      <rect
         y="916.36218"
         x="19.000004"
         height="32"
         width="32"
         id="rect1177"
         style="opacity:1;fill:none;fill-opacity:1;stroke:none" />
      <rect
         style="color:#eff0f1;opacity:0;fill:currentColor;fill-opacity:1;stroke:none"
         id="rect1179"
         width="32"
         height="32"
         x="19.000004"
         y="916.36218"
         class="ColorScheme-Background" />
    </g>
    <g
       id="topleft">
      <path
         class="ColorScheme-Background"
         id="rect4159"
         d="m 14,910.36218 c -0.553986,0 -1,0.44601 -1,1 v 4 1 h 4 1 1 v -1 -4 -1 h -1 -1 z"
         style="opacity:0.8;fill:currentColor;fill-opacity:1"
         inkscape:connector-curvature="0" />
      <path
         transform="translate(0,904.36218)"
         inkscape:connector-curvature="0"
         id="path930"
         d="m 14,6 c -0.553986,0 -1,0.44601 -1,1 v 4 1 h 1 V 7.8417969 C 14,7.2878069 14.309295,7 14.863281,7 H 18 19 V 6 h -1 -1 z"
         style="fill:#ffffff;fill-opacity:0.3" />
    </g>
    <g
       id="topright"
       transform="rotate(90,35,932.36218)">
      <path
         inkscape:connector-curvature="0"
         style="opacity:0.8;fill:currentColor;fill-opacity:1"
         d="m 14,910.36218 c -0.553986,0 -1,0.44601 -1,1 v 4 1 h 4 1 1 v -1 -4 -1 h -1 -1 z"
         id="path989"
         class="ColorScheme-Background" />
      <path
         style="fill:#ffffff;fill-opacity:0.3"
         d="m 14,6 c -0.553986,0 -1,0.44601 -1,1 v 4 1 h 1 V 7.8417969 C 14,7.2878069 14.309295,7 14.863281,7 H 18 19 V 6 h -1 -1 z"
         id="path991"
         inkscape:connector-curvature="0"
         transform="translate(0,904.36218)" />
    </g>
    <g
       id="bottomleft"
       transform="matrix(1,0,0,-1,0,1864.7244)">
      <path
         inkscape:connector-curvature="0"
         style="opacity:0.8;fill:currentColor;fill-opacity:1"
         d="m 14,910.36218 c -0.553986,0 -1,0.44601 -1,1 v 4 1 h 4 1 1 v -1 -4 -1 h -1 -1 z"
         id="path1001"
         class="ColorScheme-Background" />
      <path
         style="fill:#ffffff;fill-opacity:0.3"
         d="m 14,6 c -0.553986,0 -1,0.44601 -1,1 v 4 1 h 1 V 7.8417969 C 14,7.2878069 14.309295,7 14.863281,7 H 18 19 V 6 h -1 -1 z"
         id="path1003"
         inkscape:connector-curvature="0"
         transform="translate(0,904.36218)" />
    </g>
    <g
       transform="matrix(0,-1,-1,0,967.36218,967.36216)"
       id="bottomright">
      <path
         class="ColorScheme-Background"
         id="path1007"
         d="m 14,910.36218 c -0.553986,0 -1,0.44601 -1,1 v 4 1 h 4 1 1 v -1 -4 -1 h -1 -1 z"
         style="opacity:0.8;fill:currentColor;fill-opacity:1"
         inkscape:connector-curvature="0" />
      <path
         transform="translate(0,904.36218)"
         inkscape:connector-curvature="0"
         id="path1009"
         d="m 14,6 c -0.553986,0 -1,0.44601 -1,1 v 4 1 h 1 V 7.8417969 C 14,7.2878069 14.309295,7 14.863281,7 H 18 19 V 6 h -1 -1 z"
         style="fill:#ffffff;fill-opacity:0.3" />
    </g>
    <path
       style="opacity:0.45;fill:url(#radialGradient1060);fill-opacity:1;fill-rule:evenodd;stroke:none;stroke-width:1px;stroke-linecap:butt;stroke-linejoin:miter;stroke-opacity:1"
       d="m 69.999303,892.36216 v 19 1 4 l 6.97e-4,8 h 18 v -8 c 0.01058,-3.03298 2.266613,-5.5811 5.2786,-5.9375 0.239183,-0.0371 8.48067,-0.0625 8.7214,-0.0625 v -18 h -12.000697 -1 z"
       id="shadow-topleft"
       inkscape:connector-curvature="0"
       sodipodi:nodetypes="ccccccccccccc" />
    <path
       inkscape:connector-curvature="0"
       style="color:#eff0f1;opacity:0;fill:currentColor;fill-opacity:1"
       d="m 88,916.36216 h 1 4 1 v -1 -1 -3 -1 h -1 -4 c -0.553986,0 -1,0.44601 -1,1 v 3 1 z"
       id="path1056"
       class="ColorScheme-Background" />
    <path
       sodipodi:nodetypes="ccccccccccccc"
       inkscape:connector-curvature="0"
       id="shadow-topright"
       d="m 150,892.36216 h -19 -1 -4 l -8,0 v 18 l 8,7e-4 c 3.03298,0.0106 5.5811,2.26661 5.9375,5.2786 0.0371,0.23918 0.0625,8.47997 0.0625,8.7207 h 18 v -12 -1 z"
       style="opacity:0.45;fill:url(#radialGradient915);fill-opacity:1.0;fill-rule:evenodd;stroke:none;stroke-width:1px;stroke-linecap:butt;stroke-linejoin:miter;stroke-opacity:1" />
    <path
       style="opacity:0.45;fill:url(#radialGradient919);fill-opacity:1.0;fill-rule:evenodd;stroke:none;stroke-width:1px;stroke-linecap:butt;stroke-linejoin:miter;stroke-opacity:1"
       d="m 150.0007,972.36216 v -19 -1 -4 l -7e-4,-8 h -18 v 8 c -0.0106,3.03298 -2.26661,5.5811 -5.2786,5.9375 -0.23918,0.0371 -8.48067,0.0625 -8.7214,0.0625 v 18 l 12.0007,0 h 1 z"
       id="shadow-bottomright"
       inkscape:connector-curvature="0"
       sodipodi:nodetypes="ccccccccccccc" />
    <path
       sodipodi:nodetypes="ccccccccccccc"
       inkscape:connector-curvature="0"
       id="shadow-bottomleft"
       d="m 70,972.36286 h 19 1 4 l 8,-7e-4 v -18 l -8,0 c -3.03298,-0.0106 -5.5811,-2.26661 -5.9375,-5.2786 C 88.0254,948.84438 88,940.60289 88,940.36216 H 70 v 12.0007 1 z"
       style="opacity:0.45;fill:url(#radialGradient923);fill-opacity:1.0;fill-rule:evenodd;stroke:none;stroke-width:1px;stroke-linecap:butt;stroke-linejoin:miter;stroke-opacity:1" />
  </g>
</svg>
